<?xml version="1.0" encoding="UTF-8" standalone="no"?>
<svg
   xmlns:dc="http://purl.org/dc/elements/1.1/"
   xmlns:cc="http://creativecommons.org/ns#"
   xmlns:rdf="http://www.w3.org/1999/02/22-rdf-syntax-ns#"
   xmlns:svg="http://www.w3.org/2000/svg"
   xmlns="http://www.w3.org/2000/svg"
   xmlns:xlink="http://www.w3.org/1999/xlink"
   xmlns:sodipodi="http://sodipodi.sourceforge.net/DTD/sodipodi-0.dtd"
   xmlns:inkscape="http://www.inkscape.org/namespaces/inkscape"
   version="1.1"
   id="svg10"
   width="64.027885"
   height="79.375984"
   viewBox="0 0 64.027884 79.375985"
   sodipodi:docname="banana.svg"
   inkscape:version="1.0.1 (c497b03c, 2020-09-10)">
  <metadata
     id="metadata16">
    <rdf:RDF>
      <cc:Work
         rdf:about="">
        <dc:format>image/svg+xml</dc:format>
        <dc:type
           rdf:resource="http://purl.org/dc/dcmitype/StillImage" />
        <dc:title />
      </cc:Work>
    </rdf:RDF>
  </metadata>
  <defs
     id="defs14">
    <linearGradient
       inkscape:collect="always"
       id="linearGradient46">
      <stop
         style="stop-color:#ffcc00;stop-opacity:1"
         offset="0"
         id="stop42" />
      <stop
         style="stop-color:#88aa00;stop-opacity:1"
         offset="1"
         id="stop44" />
    </linearGradient>
    <linearGradient
       inkscape:collect="always"
       xlink:href="#linearGradient46"
       id="linearGradient48"
       x1="225.57748"
       y1="349.15149"
       x2="308.50958"
       y2="172.18979"
       gradientUnits="userSpaceOnUse"
       gradientTransform="matrix(0.27377009,0,0,0.27377009,185.83737,185.9204)" />
  </defs>
  <sodipodi:namedview
     pagecolor="#ffffff"
     bordercolor="#666666"
     borderopacity="1"
     objecttolerance="10"
     gridtolerance="10"
     guidetolerance="10"
     inkscape:pageopacity="0"
     inkscape:pageshadow="2"
     inkscape:window-width="1280"
     inkscape:window-height="729"
     id="namedview12"
     showgrid="false"
     inkscape:zoom="4.6412353"
     inkscape:cx="32.013944"
     inkscape:cy="39.687992"
     inkscape:window-x="0"
     inkscape:window-y="23"
     inkscape:window-maximized="0"
     inkscape:current-layer="g18"
     inkscape:snap-global="false"
     inkscape:document-rotation="0" />
  <g
     inkscape:groupmode="layer"
     inkscape:label="Image"
     id="g18"
     transform="translate(-223.87936,-216.31964)">
    <path
       style="fill:url(#linearGradient48);fill-opacity:1;stroke-width:0.160153"
       d="m 255.84484,295.4725 c -1.41251,-0.51754 -2.26809,-1.60333 -2.44581,-3.10394 -0.13683,-1.15526 0.26681,-2.7293 2.12354,-8.28092 0.91798,-2.74476 1.66905,-5.02254 1.66905,-5.06175 0,-0.0392 -0.88555,0.51288 -1.9679,1.22686 -4.66077,3.0745 -9.16968,5.06526 -14.51513,6.4087 -3.46704,0.87134 -6.34697,1.25328 -9.62198,1.27607 -2.47817,0.0172 -2.93249,-0.0214 -3.92376,-0.33384 -1.50125,-0.47316 -2.36295,-1.13232 -2.89091,-2.21143 -0.41726,-0.85285 -0.42324,-0.91189 -0.36815,-3.63537 l 0.056,-2.76845 0.5755,-1.20116 c 1.25591,-2.62129 3.72278,-5.24268 10.47509,-11.13123 7.29368,-6.36067 11.93143,-11.32177 11.93143,-12.76332 0,-0.76259 -0.41244,-1.54666 -0.87459,-1.66265 -0.57269,-0.14374 -1.16666,0.28144 -3.78482,2.70931 -3.95106,3.66389 -5.84125,5.08925 -8.23899,6.21287 -1.74671,0.81853 -3.08163,1.15265 -4.66552,1.16775 -1.08375,0.0103 -1.38447,-0.0442 -1.75179,-0.31773 -0.85912,-0.63973 -1.10457,-1.13376 -1.09525,-2.20451 0.0112,-1.28972 0.29028,-1.80719 2.38234,-4.41779 2.63422,-3.28715 3.2296,-4.42457 4.10148,-7.83545 1.34061,-5.24458 4.99556,-9.31927 9.36067,-10.43568 2.22515,-0.56909 4.47613,-0.2979 6.73923,0.81195 2.94149,1.44253 5.09588,4.34834 6.06433,8.17949 0.19727,0.78037 0.40006,1.46025 0.45065,1.51085 0.2247,0.22468 2.14735,-2.95465 3.01531,-4.98616 1.34628,-3.15105 1.32608,-2.96992 1.34732,-12.08295 0.0208,-8.93809 0.0432,-9.17743 1.06759,-11.39981 0.96586,-2.09544 2.54462,-2.99506 4.90583,-2.79546 6.62025,0.55962 11.81529,8.04102 12.84375,18.49634 0.32437,3.29761 0.13972,8.69107 -0.40928,11.9545 -0.34598,2.0566 -1.24168,5.3942 -2.00256,7.46197 -0.35925,0.97632 -0.62953,1.78963 -0.6006,1.80735 0.0289,0.0177 0.70121,0.16066 1.49397,0.31762 4.15118,0.82193 7.19324,3.07196 8.891,6.57615 1.89381,3.90883 2.17458,7.93424 1.10677,15.8676 -0.77687,5.77187 -0.71261,8.64772 0.28544,12.7737 0.4917,2.03273 0.39894,2.65894 -0.51241,3.45911 -0.75499,0.6629 -1.46658,0.7695 -2.77402,0.4156 -2.86008,-0.77419 -5.13549,-2.54128 -6.3832,-4.95722 -1.26384,-2.44719 -1.69069,-4.42742 -2.14033,-9.92951 -0.17276,-2.11402 -0.42946,-4.37572 -0.57043,-5.02599 l -0.25633,-1.18231 -0.84616,2.24627 c -3.52584,9.3598 -9.72723,16.91636 -15.34635,18.69994 -1.40731,0.44669 -1.99551,0.47603 -2.90001,0.14463 z m 3.31934,-3.08595 c 1.57051,-0.8127 2.76245,-1.75393 4.5234,-3.57197 7.67641,-7.92526 11.84781,-20.87796 9.42086,-29.25288 -1.41431,-4.88046 -5.31083,-8.22327 -10.05264,-8.62409 -1.13991,-0.0964 -3.38487,0.17017 -3.5394,0.42021 -0.0432,0.07 0.23419,0.20605 0.61656,0.30233 0.38236,0.0963 1.37127,0.51349 2.19757,0.92714 2.19277,1.0977 3.67286,2.61312 4.76234,4.87601 2.18208,4.53225 2.14838,9.3798 -0.11225,16.14798 -1.73176,5.18476 -4.32342,10.64518 -8.18226,17.23932 -0.76293,1.30371 -1.17307,2.15125 -1.04106,2.15125 0.11982,0 0.75291,-0.27688 1.40688,-0.6153 z m 22.82804,-1.42665 c -0.58809,-1.34711 -1.09863,-2.96361 -1.45419,-4.60442 -0.31469,-1.45215 -0.34826,-2.0945 -0.35993,-6.88659 -0.0127,-5.23648 -0.0166,-5.29626 -0.42433,-6.50185 -0.2263,-0.66923 -0.68123,-1.62321 -1.01095,-2.11995 -0.62463,-0.94104 -2.06452,-2.34871 -2.40248,-2.34871 -0.12076,0 -0.2694,0.48474 -0.38977,1.27105 l -0.19458,1.27104 0.55368,0.72536 c 1.14119,1.49505 1.56367,3.26517 1.93614,8.11215 0.52214,6.79461 1.17694,9.09479 3.17756,11.16199 0.36229,0.37436 0.71322,0.68065 0.77983,0.68065 0.0666,0 -0.0283,-0.34233 -0.21098,-0.76072 z m 2.4822,-1.80173 c -0.26145,-1.57034 -0.30036,-6.04839 -0.0682,-7.84752 0.0852,-0.66063 0.31577,-2.35426 0.51227,-3.7636 0.45958,-3.29635 0.5101,-8.34641 0.10102,-10.09795 -0.65344,-2.79785 -1.56549,-4.54114 -3.16686,-6.05314 -1.22813,-1.15959 -2.50626,-1.8772 -4.15934,-2.3353 -1.01691,-0.28179 -2.08935,-0.432 -2.08196,-0.2916 9.7e-4,0.022 0.14515,0.72469 0.31998,1.56149 0.17483,0.83681 0.36447,2.3559 0.42141,3.37577 l 0.10353,1.85431 0.7376,0.38592 c 1.19116,0.62322 3.53881,3.07634 4.23528,4.42555 1.17837,2.28276 1.27923,2.97351 1.30488,8.93663 0.024,5.59397 0.10798,6.4248 0.88161,8.72837 0.3888,1.15766 0.98415,2.59666 1.04562,2.52728 0.0219,-0.0247 -0.0622,-0.6575 -0.18686,-1.40621 z m -25.79478,-3.29057 c 3.42323,-6.27698 5.88423,-12.18504 6.94506,-16.67283 0.40212,-1.70117 0.4469,-2.17101 0.43265,-4.54008 -0.0129,-2.14604 -0.0791,-2.87725 -0.35242,-3.8918 -1.17518,-4.36267 -4.15212,-6.69081 -9.25844,-7.24066 -1.13105,-0.12179 -1.81733,0.1762 -1.81733,0.78909 0,0.31319 0.12532,0.36813 1.18909,0.52138 1.66864,0.24039 3.11799,0.95852 4.23165,2.09671 1.09817,1.12235 1.81994,2.53161 2.37591,4.63893 0.36186,1.37161 0.41461,1.90118 0.42706,4.2875 0.0217,4.16662 -0.26636,5.42029 -3.22037,14.01343 -1.96307,5.71051 -3.23818,9.58701 -3.23982,9.84943 -10e-4,0.22045 0.82993,-1.17944 2.28696,-3.8511 z m -24.93827,-0.56579 c 3.91464,-0.38674 8.12055,-1.38851 11.69104,-2.7846 4.03605,-1.57813 8.74866,-4.32985 11.98395,-6.99751 l 1.4259,-1.17572 0.4525,-1.52146 c 0.85263,-2.86682 1.00701,-3.89669 1.00832,-6.72645 0.002,-3.94463 -0.65653,-6.08963 -2.33115,-7.59526 -1.06008,-0.9531 -1.94977,-1.21317 -4.15017,-1.21317 h -1.71018 l -0.0915,-2.60249 c -0.16009,-4.5521 -1.16969,-7.25684 -3.14143,-8.416 -0.62529,-0.36759 -0.91589,-0.43188 -1.93682,-0.42845 -2.59393,0.009 -4.15819,1.44346 -8.02769,7.36303 -0.92126,1.40935 -1.73907,2.66671 -1.81734,2.79414 -0.27743,0.45164 0.82248,-0.47338 3.11858,-2.62272 1.27723,-1.19558 2.81673,-2.51602 3.42113,-2.93429 1.04346,-0.72215 1.15253,-0.76034 2.16206,-0.75722 2.26197,0.007 3.43327,1.36703 3.65228,4.24078 l 0.0915,1.20115 -0.91823,1.28122 c -2.52397,3.52172 -5.35833,6.41047 -11.93215,12.16111 -2.5104,2.19604 -5.39454,4.8274 -6.4092,5.84745 -1.69753,1.70654 -3.52031,4.07079 -3.52031,4.56603 0,0.11838 0.28546,0.25199 0.66969,0.31343 0.36832,0.0589 1.12627,0.28974 1.68431,0.513 l 1.01462,0.40591 1.71895,-1.2522 c 3.19509,-2.32755 6.69706,-5.22545 10.06415,-8.32813 l 1.61875,-1.49164 0.83837,0.9639 0.83838,0.9639 -1.09583,1.01412 c -3.60408,3.33534 -7.90276,6.89802 -10.96207,9.08519 l -1.53826,1.09974 -0.10267,1.1626 c -0.0565,0.63943 -0.14739,1.36078 -0.20205,1.60302 -0.11846,0.52491 -0.14389,0.52212 2.43256,0.26759 z m 15.80292,-20.34162 c -0.46244,-0.44477 -0.84081,-0.85879 -0.84081,-0.92004 0,-0.18685 3.59597,-3.7096 3.7867,-3.7096 0.098,0 0.52207,0.40247 0.94231,0.89437 l 0.76409,0.89437 -1.82305,1.82824 c -1.00268,1.00553 -1.86027,1.82668 -1.90574,1.82478 -0.0455,-0.002 -0.46105,-0.36735 -0.9235,-0.81212 z m -20.78611,19.52446 c 0.13554,-0.45641 0.24644,-1.06753 0.24644,-1.35805 0,-0.45294 -0.0892,-0.57371 -0.62592,-0.84753 -0.34426,-0.17563 -0.92081,-0.36648 -1.28123,-0.42411 l -0.65531,-0.10479 v 1.27379 c 0,1.40409 0.19584,1.74604 1.20115,2.09734 0.78291,0.27359 0.85715,0.2312 1.11487,-0.63665 z m 1.63076,-25.16559 c 1.73861,-0.89907 3.17674,-2.59904 6.66376,-7.87702 2.5023,-3.78751 3.54003,-5.10584 4.92434,-6.25582 2.31794,-1.92558 4.90663,-2.44659 7.44733,-1.49889 0.73135,0.2728 1.21882,0.616 2.04176,1.43747 0.59457,0.59351 1.08104,1.02693 1.08104,0.96314 0,-0.0638 -0.18563,-0.5728 -0.4125,-1.13113 -0.86737,-2.13461 -2.34005,-3.88557 -3.94678,-4.69256 -3.32796,-1.67148 -6.47648,-1.01912 -9.41805,1.9514 -1.69838,1.71511 -2.63985,3.47494 -3.36599,6.29187 -0.87167,3.38148 -1.88718,5.29444 -4.44684,8.37669 -1.128,1.35829 -1.95239,2.56941 -1.95239,2.86825 0,0.11261 0.8324,-0.14799 1.38432,-0.4334 z m 44.00727,-7.13705 c 1.59201,-4.87117 1.92641,-7.16096 1.92066,-13.15186 -0.004,-3.98649 -0.0483,-4.80116 -0.3513,-6.4346 -1.50039,-8.08868 -5.86891,-13.73082 -10.64059,-13.74283 -0.61295,-0.001 -0.85865,0.0889 -1.30469,0.4806 -1.36751,1.20067 -1.57567,2.83213 -1.51833,11.89932 0.0409,6.46732 0.0155,7.37041 -0.23925,8.49166 -0.62371,2.74559 -1.88367,5.63958 -3.51905,8.08285 -0.48324,0.72197 -0.83194,1.31173 -0.7749,1.3106 0.057,-9.8e-4 0.57014,-0.14826 1.14022,-0.32693 4.51975,-1.41659 10.65429,0.68473 13.76317,4.71442 0.38174,0.4948 0.71736,0.89964 0.74583,0.89964 0.0285,0 0.37867,-1.00029 0.77823,-2.22287 z"
       id="path22" />
  </g>
</svg>
